<svg width="33" height="25" viewBox="0 0 33 25" fill="none" xmlns="http://www.w3.org/2000/svg">
<path d="M17.8751 19.5312C17.7396 19.5317 17.6053 19.5117 17.4802 19.4724C17.355 19.433 17.2415 19.3751 17.1463 19.3021C16.9532 19.1556 16.8447 18.957 16.8447 18.75C16.8447 18.543 16.9532 18.3444 17.1463 18.1979L24.6676 12.5L17.1463 6.80208C16.9642 6.65398 16.865 6.4581 16.8697 6.25571C16.8744 6.05331 16.9826 5.8602 17.1716 5.71706C17.3605 5.57392 17.6154 5.49193 17.8826 5.48836C18.1498 5.48479 18.4083 5.55992 18.6038 5.69792L26.8538 11.9479C27.0469 12.0944 27.1554 12.293 27.1554 12.5C27.1554 12.707 27.0469 12.9056 26.8538 13.0521L18.6038 19.3021C18.5086 19.3751 18.3951 19.433 18.27 19.4724C18.1448 19.5117 18.0106 19.5317 17.8751 19.5312Z" fill="#F0F0F0"/>
<path d="M26.125 13.2812H6.875C6.6015 13.2812 6.33919 13.1989 6.1458 13.0524C5.9524 12.9059 5.84375 12.7072 5.84375 12.5C5.84375 12.2928 5.9524 12.0941 6.1458 11.9476C6.33919 11.8011 6.6015 11.7188 6.875 11.7188H26.125C26.3985 11.7188 26.6608 11.8011 26.8542 11.9476C27.0476 12.0941 27.1562 12.2928 27.1562 12.5C27.1562 12.7072 27.0476 12.9059 26.8542 13.0524C26.6608 13.1989 26.3985 13.2812 26.125 13.2812Z" fill="#F0F0F0"/>
</svg>
