<svg width="18" height="18" viewBox="0 0 18 18" fill="none" xmlns="http://www.w3.org/2000/svg">
<path d="M9 16.5C9 16.5 14.625 12 14.625 7.125C14.625 4.0185 12.1065 1.5 9 1.5C5.8935 1.5 3.375 4.0185 3.375 7.125C3.375 12 9 16.5 9 16.5Z" stroke="#FCFCFC" stroke-width="1.66667" stroke-linejoin="round"/>
<path d="M9 9.375C9.29547 9.375 9.58806 9.3168 9.86104 9.20373C10.134 9.09066 10.3821 8.92492 10.591 8.71599C10.7999 8.50706 10.9657 8.25902 11.0787 7.98604C11.1918 7.71306 11.25 7.42047 11.25 7.125C11.25 6.82953 11.1918 6.53694 11.0787 6.26396C10.9657 5.99098 10.7999 5.74294 10.591 5.53401C10.3821 5.32508 10.134 5.15934 9.86104 5.04627C9.58806 4.9332 9.29547 4.875 9 4.875C8.40326 4.875 7.83097 5.11205 7.40901 5.53401C6.98705 5.95597 6.75 6.52826 6.75 7.125C6.75 7.72174 6.98705 8.29403 7.40901 8.71599C7.83097 9.13795 8.40326 9.375 9 9.375Z" stroke="#FCFCFC" stroke-width="1.66667" stroke-linejoin="round"/>
</svg>
