<svg width="27" height="25" viewBox="0 0 27 25" fill="none" xmlns="http://www.w3.org/2000/svg">
	<path d="M14.6252 19.5313C14.5144 19.5318 14.4045 19.5118 14.3021 19.4724C14.1998 19.4331 14.1069 19.3752 14.029 19.3021C13.871 19.1556 13.7822 18.9571 13.7822 18.75C13.7822 18.543 13.871 18.3444 14.029 18.198L20.1827 12.5L14.029 6.80213C13.8799 6.65403 13.7988 6.45815 13.8027 6.25575C13.8065 6.05335 13.8951 5.86024 14.0497 5.7171C14.2042 5.57397 14.4128 5.49197 14.6314 5.4884C14.85 5.48483 15.0615 5.55996 15.2215 5.69796L21.9715 11.948C22.1295 12.0944 22.2182 12.293 22.2182 12.5C22.2182 12.7071 22.1295 12.9056 21.9715 13.0521L15.2215 19.3021C15.1436 19.3752 15.0507 19.4331 14.9483 19.4724C14.8459 19.5118 14.7361 19.5318 14.6252 19.5313Z" fill="#fff" />
	<path d="M21.375 13.2812H5.625C5.40122 13.2812 5.18661 13.1989 5.02838 13.0524C4.87014 12.9059 4.78125 12.7072 4.78125 12.5C4.78125 12.2928 4.87014 12.0941 5.02838 11.9476C5.18661 11.8011 5.40122 11.7188 5.625 11.7188H21.375C21.5988 11.7188 21.8134 11.8011 21.9716 11.9476C22.1299 12.0941 22.2187 12.2928 22.2187 12.5C22.2187 12.7072 22.1299 12.9059 21.9716 13.0524C21.8134 13.1989 21.5988 13.2812 21.375 13.2812Z" fill="#fff" />
</svg>
